<svg width="64" height="64" viewBox="0 0 64 64" fill="none" xmlns="http://www.w3.org/2000/svg">
<path d="M50.1429 22.605L50.5356 23.5248L50.5454 23.5205L50.1429 22.605ZM31 25C23.9162 25 17.5491 23.8384 12.9899 21.9971C10.7076 21.0754 8.9274 20.0031 7.73383 18.8635C6.54273 17.7263 6 16.5896 6 15.5H4C4 17.3096 4.9124 18.9349 6.35272 20.3101C7.79057 21.6829 9.81803 22.8731 12.2409 23.8516C17.092 25.8108 23.7249 27 31 27V25ZM6 15.5C6 14.4104 6.54273 13.2737 7.73383 12.1365C8.9274 10.9969 10.7076 9.92456 12.9899 9.00286C17.5491 7.16159 23.9162 6 31 6V4C23.7249 4 17.092 5.18924 12.2409 7.14839C9.81803 8.12689 7.79057 9.31714 6.35272 10.6899C4.9124 12.0651 4 13.6904 4 15.5H6ZM31 6C38.0839 6 44.451 7.16103 49.0102 9.00201C51.2924 9.92356 53.0726 10.9958 54.2661 12.1355C55.4572 13.2727 56 14.4097 56 15.5H58C58 13.6899 57.0877 12.0643 55.6473 10.689C54.2094 9.31604 52.1819 8.12585 49.759 7.14749C44.9079 5.18864 38.2751 4 31 4V6ZM56 15.5C56 16.5302 55.5154 17.6003 54.4555 18.6762C53.3915 19.7562 51.7986 20.7848 49.7405 21.6895L50.5454 23.5205C52.7443 22.5538 54.58 21.3996 55.8802 20.0798C57.1846 18.7558 58 17.2092 58 15.5H56ZM31 27C40.2807 27 46.4643 25.2626 50.5355 23.5247L49.7503 21.6853C45.9317 23.3154 40.0156 25 31 25V27Z" fill="#343434"/>
<path d="M57 34V16" stroke="#343434" stroke-width="2" stroke-linecap="round" stroke-linejoin="round"/>
<path d="M5 16V30.3453C5 35.0266 15.9375 40 30 40" stroke="#343434" stroke-width="2" stroke-linecap="round" stroke-linejoin="round"/>
<path d="M5 30V44.5124C5 49.5119 16.44 54 31 54" stroke="#343434" stroke-width="2" stroke-linecap="round" stroke-linejoin="round"/>
<path d="M45.5 55C50.7467 55 55 50.7467 55 45.5C55 40.2533 50.7467 36 45.5 36C40.2533 36 36 40.2533 36 45.5C36 50.7467 40.2533 55 45.5 55Z" stroke="#343434" stroke-width="2" stroke-linecap="round" stroke-linejoin="round"/>
<path d="M59 59L52.5 52.5" stroke="#343434" stroke-width="2" stroke-linecap="round" stroke-linejoin="round"/>
</svg>
