<svg width="64" height="64" viewBox="0 0 64 64" fill="none" xmlns="http://www.w3.org/2000/svg">
<path d="M29.0029 36H15.0029" stroke="#343434" stroke-width="2" stroke-linecap="round" stroke-linejoin="round"/>
<path d="M45.0029 59C51.6303 59 57.0029 53.6274 57.0029 47C57.0029 40.3726 51.6303 35 45.0029 35C38.3755 35 33.0029 40.3726 33.0029 47C33.0029 53.6274 38.3755 59 45.0029 59Z" stroke="#343434" stroke-width="2" stroke-linecap="round" stroke-linejoin="round"/>
<path d="M42.0029 43.5C42.0029 42 43.5029 41 45.0029 41C46.5029 41 48.0029 42.4994 48.0029 43.9997C48.0029 45.5 46.9417 46.9998 45.0029 46.9998V48.9998" stroke="#343434" stroke-width="2" stroke-linecap="round" stroke-linejoin="round"/>
<path d="M45.0029 52C45.2007 52 45.3941 52.0587 45.5585 52.1685C45.723 52.2784 45.8511 52.4346 45.9268 52.6173C46.0025 52.8 46.0223 53.0011 45.9837 53.1951C45.9451 53.3891 45.8499 53.5673 45.71 53.7071C45.5702 53.847 45.392 53.9422 45.198 53.9808C45.004 54.0194 44.803 53.9996 44.6202 53.9239C44.4375 53.8482 44.2813 53.72 44.1715 53.5556C44.0616 53.3911 44.0029 53.1978 44.0029 53C44.0029 52.7348 44.1083 52.4804 44.2958 52.2929C44.4834 52.1054 44.7377 52 45.0029 52Z" fill="#343434"/>
<path d="M25.0029 46H15.0029" stroke="#343434" stroke-width="2" stroke-linecap="round" stroke-linejoin="round"/>
<path d="M39.0029 26H15.0029" stroke="#343434" stroke-width="2" stroke-linecap="round" stroke-linejoin="round"/>
<path d="M31.0029 59H9.00285C7.8985 59 7.00316 58.1049 7.00288 57.0006C6.99866 40.3336 6.99945 23.6666 7.00285 6.99957C7.00307 5.89517 7.89853 5 9.00293 5V5H40.0802C40.664 5 41.2186 5.25505 41.5985 5.69823L52.5212 18.4382C52.832 18.8007 53.0029 19.2625 53.0029 19.74V31" stroke="#343434" stroke-width="2" stroke-linecap="round" stroke-linejoin="round"/>
<path d="M41.0032 6L41.003 17C41.0029 18.1045 41.8984 19 43.003 19H52.0029" stroke="#343434" stroke-width="2" stroke-linecap="round" stroke-linejoin="round"/>
</svg>
