<svg width="64" height="64" viewBox="0 0 64 64" fill="none" xmlns="http://www.w3.org/2000/svg">
<path d="M29.0029 36H15.0029" stroke="#343434" stroke-width="2" stroke-linecap="round" stroke-linejoin="round"/>
<path d="M45.0029 59C51.6303 59 57.0029 53.6274 57.0029 47C57.0029 40.3726 51.6303 35 45.0029 35C38.3755 35 33.0029 40.3726 33.0029 47C33.0029 53.6274 38.3755 59 45.0029 59Z" stroke="#343434" stroke-width="2" stroke-linecap="round" stroke-linejoin="round"/>
<path d="M49.0029 43C47.8677 44.8542 43.6001 50.9964 43.6001 50.9964L41.0029 49" stroke="#343434" stroke-width="2" stroke-linecap="round" stroke-linejoin="round"/>
<path d="M25.0029 46H15.0029" stroke="#343434" stroke-width="2" stroke-linecap="round" stroke-linejoin="round"/>
<path d="M39.0029 26H15.0029" stroke="#343434" stroke-width="2" stroke-linecap="round" stroke-linejoin="round"/>
<path d="M31.0029 59H9.00285C7.8985 59 7.00316 58.1049 7.00288 57.0006C6.99866 40.3336 6.99945 23.6666 7.00285 6.99957C7.00307 5.89517 7.89853 5 9.00293 5V5H40.0802C40.664 5 41.2186 5.25505 41.5985 5.69823L52.5212 18.4382C52.832 18.8007 53.0029 19.2625 53.0029 19.74V31" stroke="#343434" stroke-width="2" stroke-linecap="round" stroke-linejoin="round"/>
<path d="M41.0032 6L41.003 17C41.0029 18.1045 41.8984 19 43.003 19H52.0029" stroke="#343434" stroke-width="2" stroke-linecap="round" stroke-linejoin="round"/>
</svg>
